<svg xmlns="http://www.w3.org/2000/svg" xmlns:xlink="http://www.w3.org/1999/xlink" width="140" height="140" viewBox="0 0 140 140">
    <defs><path id="a" d="M0 0h140v140H0z"/></defs><g fill="none" fill-rule="evenodd"><mask id="b" fill="#fff"><use xlink:href="#a"/></mask><use fill="#FFF" xlink:href="#a"/><path fill="#F1F1F1" stroke="#D7D7D7" d="M12.137 146.45l23.44 1.966 12.993-5.83 46.345-57.572 5.876-3.159 13.653-22.71 34.486-41.287-6.638-30.777z" mask="url(#b)"/><path stroke="#D7D7D7" d="M19.7 143l101-125M17.7 143l101-125" mask="url(#b)"/><path fill="#FFF1AF" d="M23.41 142.036l21.574-21.133 62.045-74.859 2.973-6.82.344-2.871-1.884-6.067 1.54-2.923h9.892l21.137-22.157 3.025 2.717-96.6 114.994-20.144 20.282-3.902-1.163zm90.086-104.04h.205l6.193-7.402h-8.203l1.805 5.217v2.186z" mask="url(#b)"/><path stroke="#F6CF64" d="M23.886 141.338l18.616-18.244 63.964-76.626 3.42-7.182v-2.738l-1.942-6.21M27.886 141.338l16.807-16.515 96.193-113.485M113.481 38.218v-2.336l-1.79-5.288h8.203zM110.002 27.363h9.892l20.434-21.398" mask="url(#b)"/><path fill="#FFF1AF" stroke="#F6CF64" d="M36 143.823l66.01-80.934 46.526-55.026L156.456 4l1.062 4.353-6.568 2.936-45.006 52.34-1.395 6.878 2.682 6.688 5.305 3.875-2.262 2.609-5.028-3.298-4.014-8.84H99.32L39.643 144.41z" mask="url(#b)"/><path fill="#AADAFF" d="M-3.106 41.9L7.989 39.87l7.646-4.586 11.052-2.85 9.087.952 12.2-.006 2.487-2.48v-3.858l-3.405-5.854-1.53-5.399V.486L-.454 0z" mask="url(#b)"/><path fill="#F1F1F1" stroke="#D7D7D7" d="M-3.612 83.019L7.885 72.412l12.13 8.443 6.065-6.774-28.569-25.414z" mask="url(#b)"/><path fill="#F1F1F1" stroke="#D7D7D7" d="M-2 87.648L8.16 75.793l10.735 7.699-21.384 18.868zM-14.69 124.192l26.73-29.528 19.093 15.68v1.414L2.688 144.743zM14.941 92.369l18.47 15.865L43.735 94.93l-.94-7.716-14.082-11.42zM35.025 70.67l12.356 10.895 7.63-.71 12.642-15.012-1.54-4.885-8.764-7.249-2.338-.81-4.575.43-6.7 3.413-7.465 9.737z" mask="url(#b)"/><path fill="#F1F1F1" stroke="#D7D7D7" d="M4.354 44.132L29.34 66.357l4.91-2.124 8.278-10.25L49.54 50l3.232-3.198 3.082-2.071 2.721-5.628h1.44l.894.767v5.922l2.444 8.886 5.01 4.492 4.724.278L84.659 44.73 70.123 34.295l1.572-2.489 15.368 10.012 14.556-17.172-1.09-.594-9.293 10.243h-5.118v-4.01l9.007-7.182 4.342-8.686 7.852 1.91 1.658-20.956-24.912-16.37L48.994-1.28l1.103 4.512-1.103 10.731 5.367 14.85-.724 3.54-3.54 4.204h-10.81l-9.254-1.014-7.758.738-14.382 6.62zM61 143.575L68.436 131l11.087 10.16zM93.366 139.689L76 126.914l17.969-20.641 22.82-17.912 7.022-2.13L144 88.86l-1.253 52.371zM135.62 83l-6.99-8.117L125 62.357l6.931-15.433 6.85-.924L149 58.576zM98.361 94.395l8.764-11.715 1.852 3.551z" mask="url(#b)"/><path fill="#FFCF59" fill-opacity=".397" stroke="#F1A786" stroke-opacity=".502" d="M56.123 17.623l4.2 6.646 4.8 4.17 4.03-1.124 7.575-4.806 6.143 4.806h9.351l7.484-4.806 18.77-23.107L115.792-9H72.487L67.43.623l-.746 6.18-4.293 6.435z" mask="url(#b)"/><path fill="#403B45" fill-rule="nonzero" d="M-20.26 56.888c0 .578-.197 1.022-.591 1.334-.395.31-.96.466-1.693.466h-.672v2.246h-.664v-5.71h1.48c1.427 0 2.14.554 2.14 1.664zm-2.956 1.23h.597c.589 0 1.015-.095 1.278-.285.263-.19.394-.495.394-.914 0-.378-.123-.659-.37-.844-.248-.185-.634-.277-1.157-.277h-.742v2.32zm6.007-1.543c.19 0 .361.016.512.047l-.09.602a2.209 2.209 0 0 0-.468-.059c-.347 0-.643.14-.89.422-.245.281-.368.631-.368 1.05v2.297h-.649v-4.28h.536l.074.792h.031c.159-.278.35-.493.574-.644.224-.151.47-.227.738-.227zm5.008 2.215c0 .698-.175 1.243-.527 1.635-.352.392-.837.588-1.457.588a1.93 1.93 0 0 1-1.02-.27 1.779 1.779 0 0 1-.687-.773c-.162-.336-.242-.73-.242-1.18 0-.698.174-1.242.523-1.63.35-.39.833-.585 1.453-.585.6 0 1.075.2 1.428.598.353.398.53.937.53 1.617zm-3.261 0c0 .547.109.963.328 1.25.218.286.54.43.965.43.424 0 .746-.143.966-.428.22-.285.33-.703.33-1.252 0-.544-.11-.958-.33-1.24-.22-.283-.545-.424-.974-.424-.425 0-.745.14-.961.418-.216.279-.324.694-.324 1.246zm6.39 2.223c-.278 0-.533-.052-.763-.155a1.436 1.436 0 0 1-.58-.474h-.047c.03.25.046.487.046.71v1.762h-.648v-6.203h.527l.09.586h.031c.167-.234.361-.403.582-.508a1.77 1.77 0 0 1 .762-.156c.568 0 1.006.194 1.315.582.308.388.463.932.463 1.633 0 .703-.157 1.25-.471 1.639-.314.389-.75.584-1.307.584zm-.094-3.887c-.437 0-.753.121-.949.363-.195.242-.295.628-.3 1.156v.145c0 .602.1 1.032.3 1.291.2.26.522.389.965.389.37 0 .66-.15.87-.45.209-.3.314-.712.314-1.238 0-.534-.105-.943-.315-1.228-.21-.286-.504-.428-.885-.428zm4.813 3.887c-.633 0-1.132-.193-1.498-.579-.366-.385-.549-.92-.549-1.605 0-.69.17-1.238.51-1.645.34-.406.796-.609 1.369-.609.536 0 .96.177 1.273.53.313.352.47.818.47 1.396v.41h-2.95c.013.503.14.884.38 1.145.242.26.58.39 1.018.39.461 0 .917-.096 1.368-.289v.578c-.23.1-.446.17-.65.213a3.655 3.655 0 0 1-.741.065zm-.176-3.895c-.344 0-.618.112-.822.336-.205.224-.325.534-.361.93h2.238c0-.41-.091-.722-.274-.94-.182-.217-.442-.326-.78-.326zm4.809-.543c.19 0 .36.016.511.047l-.09.602a2.209 2.209 0 0 0-.468-.059c-.346 0-.643.14-.889.422-.246.281-.369.631-.369 1.05v2.297h-.648v-4.28h.535l.074.792h.031c.16-.278.35-.493.574-.644.224-.151.47-.227.739-.227zm2.695 3.902c.115 0 .225-.008.332-.025a2.15 2.15 0 0 0 .254-.053v.496c-.07.034-.174.062-.31.084-.137.023-.26.034-.37.034-.828 0-1.242-.437-1.242-1.309v-2.547h-.613v-.312l.613-.27.274-.914h.375v.992H3.53v.504H2.288v2.52c0 .257.06.455.183.593.123.138.29.207.504.207zm.762-3.824h.695l.938 2.442c.205.557.333.96.382 1.207h.032c.034-.133.104-.36.213-.682.108-.322.461-1.31 1.06-2.967h.695l-1.84 4.875c-.182.482-.395.824-.638 1.026a1.358 1.358 0 0 1-.897.302c-.197 0-.393-.022-.586-.066v-.52c.144.032.304.047.481.047.445 0 .763-.25.953-.75l.238-.61-1.726-4.304zm5.472 4.281h-.664v-5.71h3.184v.59h-2.52v2.09h2.368v.59H9.209v2.44zm4.016 0h-.648v-4.28h.648v4.28zm-.703-5.44c0-.15.036-.258.11-.327a.382.382 0 0 1 .273-.104c.104 0 .194.036.27.106.075.07.113.178.113.324 0 .146-.038.255-.114.326a.378.378 0 0 1-.27.108c-.109 0-.2-.036-.273-.108-.073-.071-.109-.18-.109-.326zm5.008 5.44v-2.769c0-.349-.08-.61-.239-.781-.158-.172-.407-.258-.746-.258-.448 0-.776.121-.984.363-.208.242-.312.642-.312 1.2v2.245H14.6v-4.28h.527l.106.585h.031c.133-.21.32-.374.559-.49.24-.116.506-.174.8-.174.516 0 .904.124 1.165.373.26.249.39.647.39 1.194v2.792h-.648zm4.894-.574h-.035c-.3.435-.747.653-1.344.653-.56 0-.995-.192-1.306-.575-.311-.382-.467-.927-.467-1.632 0-.706.156-1.254.469-1.645.312-.39.747-.586 1.304-.586.581 0 1.026.211 1.336.633h.051l-.027-.309-.016-.3v-1.743h.649v6.078h-.528l-.086-.574zm-1.297.11c.443 0 .764-.12.963-.362.2-.24.3-.63.3-1.166v-.136c0-.607-.102-1.04-.304-1.3-.201-.258-.524-.388-.966-.388-.38 0-.672.148-.873.443-.202.296-.303.713-.303 1.252 0 .547.1.96.3 1.239.201.278.495.418.883.418zm5.094.543c-.633 0-1.132-.193-1.498-.579-.366-.385-.549-.92-.549-1.605 0-.69.17-1.238.51-1.645.34-.406.796-.609 1.37-.609.536 0 .96.177 1.273.53.312.352.468.818.468 1.396v.41h-2.949c.013.503.14.884.381 1.145.24.26.58.39 1.018.39.46 0 .916-.096 1.367-.289v.578c-.23.1-.446.17-.65.213a3.655 3.655 0 0 1-.74.065zm-.176-3.895c-.343 0-.617.112-.822.336-.204.224-.325.534-.361.93H27.1c0-.41-.091-.722-.273-.94-.183-.217-.443-.326-.782-.326zm4.809-.543c.19 0 .36.016.512.047l-.09.602a2.209 2.209 0 0 0-.469-.059c-.346 0-.642.14-.889.422-.246.281-.369.631-.369 1.05v2.297h-.648v-4.28h.535l.074.792h.031c.16-.278.35-.493.575-.644.224-.151.47-.227.738-.227zm6.152 3.192c0 .398-.148.705-.445.921-.297.217-.714.325-1.25.325-.568 0-1.01-.09-1.328-.27v-.601c.206.104.426.186.662.246.236.06.463.09.682.09.338 0 .599-.055.78-.163a.536.536 0 0 0 .274-.494.536.536 0 0 0-.216-.428c-.145-.118-.427-.258-.846-.42-.399-.148-.682-.277-.85-.388a1.16 1.16 0 0 1-.375-.377.983.983 0 0 1-.123-.504.96.96 0 0 1 .426-.826c.284-.202.673-.303 1.168-.303.46 0 .911.094 1.351.281l-.23.528c-.43-.177-.819-.266-1.168-.266-.307 0-.539.048-.695.145a.447.447 0 0 0-.235.398c0 .115.03.212.088.293.059.08.153.158.283.23.13.073.38.179.75.317.508.185.851.371 1.03.558a.985.985 0 0 1 .267.708zm2.438.71c.114 0 .225-.008.332-.025a2.15 2.15 0 0 0 .254-.053v.496c-.07.034-.174.062-.31.084-.137.023-.26.034-.37.034-.828 0-1.242-.437-1.242-1.309v-2.547h-.613v-.312l.613-.27.273-.914h.375v.992H40v.504h-1.243v2.52c0 .257.062.455.184.593.122.138.29.207.504.207zm3.394-3.902c.19 0 .361.016.512.047l-.09.602a2.209 2.209 0 0 0-.469-.059c-.346 0-.642.14-.888.422-.246.281-.37.631-.37 1.05v2.297h-.648v-4.28h.535l.075.792h.03c.16-.278.351-.493.575-.644.224-.151.47-.227.738-.227zm3.121 4.438c-.632 0-1.132-.193-1.498-.579-.365-.385-.548-.92-.548-1.605 0-.69.17-1.238.51-1.645.34-.406.796-.609 1.368-.609.537 0 .961.177 1.274.53.312.352.469.818.469 1.396v.41h-2.95c.013.503.14.884.381 1.145.241.26.58.39 1.018.39.46 0 .917-.096 1.367-.289v.578c-.23.1-.446.17-.65.213a3.655 3.655 0 0 1-.74.065zm-.175-3.895c-.344 0-.618.112-.823.336-.204.224-.324.534-.36.93h2.237c0-.41-.09-.722-.273-.94-.182-.217-.443-.326-.781-.326zm4.664 3.895c-.633 0-1.132-.193-1.498-.579-.366-.385-.55-.92-.55-1.605 0-.69.17-1.238.51-1.645.34-.406.797-.609 1.37-.609.536 0 .96.177 1.273.53.313.352.469.818.469 1.396v.41h-2.95c.014.503.14.884.382 1.145.24.26.58.39 1.017.39.461 0 .917-.096 1.367-.289v.578c-.229.1-.446.17-.65.213a3.655 3.655 0 0 1-.74.065zm-.176-3.895c-.344 0-.618.112-.822.336-.205.224-.325.534-.362.93h2.239c0-.41-.092-.722-.274-.94-.182-.217-.442-.326-.781-.326zm4.238 3.36c.115 0 .225-.009.332-.026a2.15 2.15 0 0 0 .254-.053v.496c-.07.034-.174.062-.31.084-.137.023-.26.034-.37.034-.828 0-1.242-.437-1.242-1.309v-2.547h-.613v-.312l.613-.27.274-.914h.375v.992h1.242v.504h-1.242v2.52c0 .257.06.455.183.593.123.138.29.207.504.207z" mask="url(#b)" transform="rotate(43 15.608 58.856)"/><path fill="#3977C7" d="M48 105v8.905L54.248 117 60 113.905V105z" mask="url(#b)"/><path fill="#FFF1AF" fill-rule="nonzero" d="M53.714 108.814c0 .626-.192 1.107-.575 1.44-.384.334-.93.501-1.639.501h-.583V113H50v-6h1.615c.701 0 1.226.153 1.575.46.35.306.524.758.524 1.354zm-2.797 1.116h.487c.471 0 .816-.087 1.036-.262.22-.176.33-.45.33-.821 0-.345-.098-.602-.295-.772-.197-.17-.504-.254-.921-.254h-.637v2.11zm4.827 3.07h-.91v-6H58v.829h-2.256v1.876h2.114v.833h-2.114V113z" mask="url(#b)"/></g>
</svg>
